<svg width="70" height="69" viewBox="0 0 70 69" fill="none" xmlns="http://www.w3.org/2000/svg">
<path d="M34.9272 0C15.6299 0 0 15.6712 0 35C0 50.4671 10.0066 63.5833 23.8815 68.2062C25.6278 68.5358 26.2682 67.4537 26.2682 66.5233C26.2682 65.6921 26.239 63.49 26.2245 60.5733C16.5089 62.685 14.4599 55.8775 14.4599 55.8775C12.8707 51.8379 10.5742 50.7587 10.5742 50.7587C7.41038 48.5887 10.8187 48.6325 10.8187 48.6325C14.326 48.8775 16.1684 52.2375 16.1684 52.2375C19.2827 57.5896 24.3442 56.0437 26.3409 55.1483C26.6553 52.885 27.5546 51.3421 28.553 50.4671C20.7962 49.5921 12.6436 46.5821 12.6436 33.1712C12.6436 29.3504 13.9971 26.2296 16.2382 23.7796C15.8453 22.8958 14.6665 19.3375 16.5438 14.5162C16.5438 14.5162 19.469 13.5771 26.1488 18.1038C28.943 17.325 31.9118 16.94 34.8806 16.9225C37.8494 16.94 40.8182 17.325 43.6124 18.1038C50.2486 13.5771 53.1737 14.5162 53.1737 14.5162C55.0511 19.3375 53.8723 22.8958 53.523 23.7796C55.7496 26.2296 57.103 29.3504 57.103 33.1712C57.103 46.6171 48.9388 49.5775 41.1675 50.4379C42.39 51.4879 43.5251 53.6346 43.5251 56.9129C43.5251 61.5971 43.4814 65.3596 43.4814 66.4971C43.4814 67.4158 44.0927 68.5096 45.8827 68.1596C59.8565 63.5687 69.8544 50.4437 69.8544 35C69.8544 15.6712 54.2157 0 34.9272 0Z" fill="#0D9BEB"/>
</svg>
