<svg width="1000" height="642" viewBox="0 0 1000 642" fill="none" xmlns="http://www.w3.org/2000/svg">
<path d="M104.064 601.887C190.654 616.023 377.359 539.298 426.801 513.661C476.243 488.024 493.188 521.201 520.028 544.764C546.868 568.328 716.982 681.621 760.557 625.823C804.133 570.024 780.46 562.673 815.027 513.661C849.595 464.649 928.157 449.568 965.867 422.234C1003.58 394.901 894.439 223.925 982.627 210.164C1070.81 196.403 801.41 30.1392 665.235 77.2662C529.061 124.393 457.36 -110.403 303.849 67.8408C192.466 73.496 1.75101 172.651 92.2547 256.348C182.758 340.046 66.8785 418.058 19.1958 444.746C-28.4869 471.434 17.4735 587.752 104.064 601.887Z" fill="url(#paint0_linear_0_31)"/>
<path d="M472.166 247.985C472.166 247.985 481.621 319.952 467.064 328.086C452.507 336.221 553.316 336.91 553.316 336.91C553.316 336.91 530.869 274.456 541.004 255.361L472.166 247.985Z" fill="#FF9E5F"/>
<path d="M626.985 337.255L618.618 375.926L600.932 457.751L600.388 462.231L594.266 514.07L590.185 548.537L587.464 571.698C570.866 580.315 558.894 586.312 558.894 586.312C558.894 586.312 557.874 581.073 556.173 574.318C544.542 577.833 522.978 583.693 504.748 584.865C511.415 592.379 514.476 599.41 510.326 604.649C497.81 620.366 446.181 587.484 428.155 575.214C427.747 578.178 427.543 581.142 427.679 584.106L413.87 573.353L415.231 548.606L417.544 506.694L420.469 454.097C419.584 451.822 418.768 449.548 418.156 447.204C413.938 431.97 408.769 401.501 404.823 375.995C401.626 355.453 399.246 338.082 398.769 334.359C398.701 333.877 398.701 333.601 398.701 333.601L475.159 299.341C480.6 312.094 505.973 315.954 505.973 315.954C526.992 314.506 543.453 303.27 543.453 303.27L626.985 337.255Z" fill="#D0CDE1"/>
<path d="M681.335 515.035C676.233 520.618 663.649 529.028 648.344 538.197C642.63 541.574 636.576 545.09 630.386 548.537C615.625 556.809 600.184 565.081 587.464 571.698C570.866 580.315 558.894 586.312 558.894 586.312C558.894 586.312 557.874 581.073 556.173 574.318C553.929 565.356 550.596 553.707 547.058 548.537C546.922 548.33 546.786 548.192 546.718 548.054C545.698 546.675 544.678 545.917 543.657 545.917L594.266 514.139L616.169 500.421L600.388 462.3L580.593 414.46L592.497 375.995L604.469 337.323H626.917C626.917 337.323 634.331 353.799 643.854 376.754C645.283 380.2 646.711 383.785 648.276 387.438C667.866 435.623 692.286 502.971 681.335 515.035Z" fill="#D0CDE1"/>
<path d="M455.16 548.054C453.323 548.054 451.487 548.192 449.65 548.537C434.005 551.294 429.38 565.632 428.087 575.214C427.679 578.178 427.475 581.142 427.611 584.106L413.802 573.353L408.769 569.424C396.661 565.15 385.845 557.567 376.526 548.606C368.431 540.678 361.153 531.924 354.759 522.48C348.433 513.174 342.855 503.385 337.957 493.252C335.168 487.53 335.1 480.844 337.685 474.984L354.759 436.381L379.791 379.925C379.995 378.615 380.199 377.236 380.403 375.995C385.369 347.181 398.633 334.359 398.633 334.359H408.769L415.571 375.995L424.006 427.696L418.088 447.204L404.415 492.287L417.476 506.625L455.16 548.054Z" fill="#D0CDE1"/>
<path d="M466.656 427.627L475.363 437.898C478.56 437.278 481.961 436.519 485.43 435.692L482.913 427.627L489.035 434.865C525.767 425.697 571.274 407.912 571.274 407.912C571.274 407.912 522.094 411.565 485.43 403.431C469.173 399.846 452.507 407.981 445.841 423.422C441.964 432.383 442.576 440.173 456.316 440.173C460.942 440.104 465.567 439.621 470.193 438.863L466.656 427.627Z" fill="#6C63FF"/>
<path d="M664.465 596.239V600.444C664.465 601.616 664.261 602.719 663.853 603.821C663.649 604.304 663.445 604.787 663.173 605.2C661.54 608.026 658.547 609.75 655.35 609.75H351.562C348.365 609.75 345.372 608.026 343.739 605.2C343.467 604.787 343.263 604.304 343.059 603.821C342.651 602.719 342.447 601.616 342.447 600.444V596.239C342.447 591.138 346.528 587.002 351.562 587.002H369.044V585.071C369.044 584.865 369.18 584.658 369.452 584.658H378.567C378.771 584.658 378.975 584.796 378.975 585.071V587.002H384.689V585.071C384.689 584.865 384.825 584.658 385.097 584.658H394.212C394.416 584.658 394.62 584.796 394.62 585.071V587.002H400.334V585.071C400.334 584.865 400.47 584.658 400.742 584.658H409.857C410.061 584.658 410.265 584.796 410.265 585.071V587.002H415.979V585.071C415.979 584.865 416.115 584.658 416.387 584.658H425.502C425.706 584.658 425.91 584.796 425.91 585.071V587.002H431.624V585.071C431.624 584.865 431.76 584.658 432.032 584.658H441.147C441.351 584.658 441.555 584.796 441.555 585.071V587.002H447.269V585.071C447.269 584.865 447.405 584.658 447.678 584.658H456.793C456.997 584.658 457.201 584.796 457.201 585.071V587.002H462.915V585.071C462.915 584.865 463.051 584.658 463.323 584.658H534.882C535.086 584.658 535.29 584.796 535.29 585.071V587.002H541.004V585.071C541.004 584.865 541.14 584.658 541.412 584.658H550.527C550.732 584.658 550.936 584.865 550.936 585.071V587.002H556.65V585.071C556.65 584.865 556.786 584.658 557.058 584.658H566.173C566.377 584.658 566.581 584.796 566.581 585.071V587.002H572.295V585.071C572.295 584.865 572.431 584.658 572.703 584.658H581.818C582.022 584.658 582.226 584.796 582.226 585.071V587.002H587.94V585.071C587.94 584.865 588.076 584.658 588.348 584.658H597.463C597.667 584.658 597.871 584.865 597.803 585.071V587.002H603.517V585.071C603.517 584.865 603.653 584.658 603.925 584.658H613.04C613.244 584.658 613.448 584.796 613.448 585.071V587.002H619.162V585.071C619.162 584.865 619.298 584.658 619.57 584.658H628.685C628.889 584.658 629.093 584.796 629.093 585.071V587.002H655.758C660.316 587.002 664.397 591.138 664.465 596.239Z" fill="#3F3D56"/>
<path d="M639.977 420.044H526.788V417.7H475.431V420.044H361.765C357.548 420.044 354.079 423.491 354.079 427.834V584.934C354.079 589.208 357.48 592.723 361.765 592.723H639.977C644.194 592.723 647.664 589.276 647.664 584.934V427.765C647.664 423.491 644.194 420.044 639.977 420.044Z" fill="#3F3D56"/>
<path d="M506.109 280.039C529.626 280.039 548.691 255.843 548.691 225.995C548.691 196.148 529.626 171.951 506.109 171.951C482.591 171.951 463.527 196.148 463.527 225.995C463.527 255.843 482.591 280.039 506.109 280.039Z" fill="#FF9E5F"/>
<path d="M484.614 264.943L493.865 259.704H519.917L528.692 266.666L532.502 261.703L514.748 253.638H499.443L481.213 262.186" fill="#AA6900"/>
<path d="M463.731 233.164C463.731 235.439 463.935 238.748 464.751 242.677C466.112 248.881 468.424 252.673 470.329 256.74C472.37 261.014 474.75 267.287 476.247 275.766C481.485 281.901 486.518 288.725 491.212 296.446C491.756 297.411 492.368 298.307 492.912 299.272C501.959 299.203 511.006 299.065 519.985 298.996C521.618 294.516 524.135 289.001 527.944 283.141C530.869 278.73 533.93 275.076 536.651 272.25C537.875 265.563 539.44 261.152 540.732 258.256C540.8 258.119 542.297 254.741 543.997 250.605C544.406 249.571 545.018 248.054 545.63 245.986C545.698 245.848 546.174 244.194 546.65 242.333C547.671 238.128 548.215 233.923 548.419 231.786C545.562 238.817 541.481 247.227 535.563 256.05C530.393 263.84 525.019 270.113 520.258 275.076C511.006 274.869 501.755 274.594 492.436 274.387C489.103 270.458 485.77 266.528 482.437 262.599C481.485 261.496 480.532 260.393 479.58 259.29C472.642 250.605 467.472 241.643 463.731 233.164Z" fill="#AA6900"/>
<path d="M464.207 234.957C465.567 229.235 466.928 223.514 468.22 217.792L466.86 208.555L494.749 181.947L499.715 184.084L504.476 181.947L509.646 180.844L514.612 184.773L519.917 182.291L530.801 189.805L537.059 199.869L543.317 206.694L546.446 211.726V223.1V233.233L547.943 235.715L552.704 225.651V210.141L548.011 190.494L540.528 174.019L533.046 164.713L521.21 158.992L512.367 155.821L510.666 158.302L502.64 155.821H493.593L475.159 168.022L467.676 180.223L459.922 202.834L457.405 218.619C458.357 221.721 459.513 225.099 461.146 228.684C462.098 230.89 463.119 233.027 464.207 234.957Z" fill="#AA6900"/>
<path d="M548.623 233.854C551.004 238.886 553.588 244.056 556.377 249.364C560.391 257.016 564.472 264.116 568.553 270.802C564.336 267.218 560.119 263.702 555.901 260.118C559.779 267.287 563.656 274.525 567.533 281.694C568.145 284.52 568.689 287.346 569.302 290.173C563.996 281.487 558.69 272.801 553.452 264.116C559.302 275.145 565.22 286.175 571.07 297.204C565.833 292.103 560.663 287.002 555.425 281.901C561.547 290.655 567.669 299.41 573.859 308.096C570.594 306.441 567.397 304.787 564.132 303.201C560.595 298.789 556.99 294.309 553.452 289.897L559.779 313.266L546.038 292.379L549.847 311.473L542.501 299.272C541.412 295.756 540.46 291.62 539.712 287.002C539.236 284.038 539.1 281.763 538.76 277.282C538.419 272.388 538.215 268.321 538.079 265.494" fill="#AA6900"/>
<defs>
<linearGradient id="paint0_linear_0_31" x1="-24.8578" y1="577.753" x2="870.333" y2="-104.767" gradientUnits="userSpaceOnUse">
<stop stop-color="#0D9BEB"/>
<stop offset="1" stop-color="#10F4F4"/>
</linearGradient>
</defs>
</svg>
