<svg width="70" height="70" viewBox="0 0 70 70" fill="none" xmlns="http://www.w3.org/2000/svg">
<path d="M59.6371 59.6517H49.2713V43.4088C49.2713 39.5354 49.1925 34.5508 43.8696 34.5508C38.465 34.5508 37.6396 38.7654 37.6396 43.1229V59.6517H27.2738V26.25H37.2313V30.8029H37.3654C38.7567 28.1779 42.14 25.4071 47.1946 25.4071C57.6975 25.4071 59.64 32.3196 59.64 41.3175V59.6517H59.6371ZM15.5662 21.6796C12.2296 21.6796 9.54917 18.9788 9.54917 15.6567C9.54917 12.3375 12.2325 9.63958 15.5662 9.63958C18.8913 9.63958 21.5863 12.3375 21.5863 15.6567C21.5863 18.9788 18.8883 21.6796 15.5662 21.6796ZM20.7638 59.6517H10.3688V26.25H20.7638V59.6517ZM64.8229 0H5.16542C2.31 0 0 2.2575 0 5.04292V64.9571C0 67.7454 2.31 70 5.16542 70H64.8142C67.6667 70 70 67.7454 70 64.9571V5.04292C70 2.2575 67.6667 0 64.8142 0H64.8229Z" fill="#3E1EBE"/>
</svg>
